<svg xmlns="http://www.w3.org/2000/svg" width="117.693" height="50" viewBox="0 0 117.693 50">
  <path id="home-credit-international-a-s-logo-vector" d="M66.015,247.988l-4.139-6.316H57.738v6.316H52.324V226.215h9.514c5.414,0,9.023,2.942,9.023,7.65a7.253,7.253,0,0,1-3.688,6.493l5.12,7.63Zm-8.278-11.161h4c2.079,0,3.707-1.157,3.707-2.942,0-1.765-1.628-2.883-3.707-2.883h-4Zm22.636-5.9v3.962h9.67v4.629h-9.67V243.3H91.417v4.708H74.96V226.234H91.417v4.708l-11.044-.02Zm35.19,6.12c0,6.473-4.9,10.945-11.75,10.945H95.066V226.215h8.749C110.66,226.215,115.564,230.668,115.564,237.043Zm-5.473,0a6.024,6.024,0,0,0-6.277-5.963H100.48v12.044h3.335A6.071,6.071,0,0,0,110.091,237.043Zm13.868-10.828v21.773h-5.414V226.215Zm20.734,4.845h-6.257v16.948h-5.375V231.06H126.8v-4.845h17.889v4.845Zm-101.177,9.1a5.1,5.1,0,0,1-5,3.2,6.252,6.252,0,0,1,0-12.5,5.077,5.077,0,0,1,5,3.2h5.728c-1.118-4.982-5.218-8.258-10.71-8.258C31.963,225.8,27,230.55,27,237.1s4.963,11.3,11.534,11.3c5.492,0,9.592-3.276,10.71-8.258C49.244,240.161,43.516,240.161,43.516,240.161Zm4.433-40.8v21.773H42.575v-8.16H33.709v8.16H28.295V199.361h5.414v8.749h8.866v-8.749Zm62.24,21.773h-5.414V210.209l-4.845,7.454v.039h-3v-.039l-4.865-7.532.039,10.985H86.69V199.342h4.041l7.709,11.632,7.729-11.632h4.041l-.02,21.793Zm9.906-17.065v3.962h9.67v4.61H120.1v3.786h11.044v4.708H114.681V199.361h16.457v4.708ZM67.31,198.4c-8.611,0-15.594,6.65-15.594,14.849a14.242,14.242,0,0,0,2.373,7.885H61.6a9.474,9.474,0,1,1,11.416,0h7.513a14.261,14.261,0,0,0,2.373-7.885c0-8.2-6.964-14.849-15.594-14.849Zm-5.1,17.281a5.371,5.371,0,0,0,10.239,0Z" transform="translate(-27 -198.4)" fill="#e11931"/>
</svg>
